<?xml version="1.0" encoding="utf-8"?>
<!-- Generator: Adobe Illustrator 21.1.0, SVG Export Plug-In . SVG Version: 6.00 Build 0)  -->
<svg version="1.1" id="Capa_1" xmlns="http://www.w3.org/2000/svg" xmlns:xlink="http://www.w3.org/1999/xlink" x="0px" y="0px"
	 viewBox="0 0 405 404" style="enable-background:new 0 0 405 404;" xml:space="preserve">
<style type="text/css">
	.st0{fill:#FFFFFF;}
	.st1{fill:#05D775;}
</style>
<g>
	<circle class="st0" cx="202.5" cy="203.7" r="190.5"/>
	<g>
		<path class="st1" d="M203,8.7C95.3,8.7,8,96,8,203.7c0,51.4,19.9,98.1,52.3,133c35.6,38.1,86.3,62,142.7,62s107.1-23.9,142.7-62.1
			c32.4-34.8,52.3-81.5,52.3-132.9C398,96,310.7,8.7,203,8.7z M203,82c60.1,0,70.5,38.3,70.5,85.6c0,47.3-31.6,85.6-70.5,85.6
			s-70.5-38.3-70.5-85.6C132.5,120.3,142.9,82,203,82z M203,378.7c-50.5,0-96.1-21.4-128-55.7c8.1-36.4,29.1-51.6,83.3-62.2
			l44.7,44.7l44.7-44.7c54.2,10.5,75.2,25.8,83.3,62.2C299.1,357.3,253.5,378.7,203,378.7z"/>
	</g>
</g>
</svg>
