<?xml version="1.0" encoding="utf-8"?>
<!-- Generator: Adobe Illustrator 21.1.0, SVG Export Plug-In . SVG Version: 6.00 Build 0)  -->
<svg version="1.1" id="Layer_1" xmlns="http://www.w3.org/2000/svg" xmlns:xlink="http://www.w3.org/1999/xlink" x="0px" y="0px"
	 viewBox="0 0 30 30" style="enable-background:new 0 0 30 30;" xml:space="preserve">
<style type="text/css">
	.st0{fill:#05D775;}
</style>
<path class="st0" d="M21.4,18.5h-1.2l-0.4-0.4c1.5-1.8,2.5-4.1,2.5-6.7c0-5.6-4.6-10.2-10.2-10.2S1.7,5.8,1.7,11.5
	s4.6,10.2,10.2,10.2c2.5,0,4.9-0.9,6.7-2.5l0.4,0.4v1.2l7.9,7.8l2.3-2.3L21.4,18.5z M11.9,18.5c-3.9,0-7.1-3.2-7.1-7.1
	S8,4.4,11.9,4.4S19,7.6,19,11.5S15.8,18.5,11.9,18.5z"/>
</svg>
